<svg width="1080" height="1010" viewBox="0 0 1080 1010" fill="none" xmlns="http://www.w3.org/2000/svg">
<g filter="url(#filter0_i_0_1)">
<path d="M154 113.709C173.93 93.7686 225.749 65.8513 273.581 113.709M273.581 113.709C321.413 161.568 378.312 133.65 400.782 113.709M273.581 113.709C238.996 132.868 176.392 197.109 202.653 300.802M366.197 60.3382C373.818 88.8811 375.928 151.714 323.406 174.705M323.406 174.705C270.884 197.696 273.385 259.356 281.201 287.312M323.406 174.705C341.382 184.089 385.307 197.227 417.195 174.705M417.195 174.705C450.021 143.738 450.803 85.5576 447.09 60.3382M417.195 174.705C388.668 192.886 338.53 240.862 366.197 287.312M511.57 60.3382C517.432 79.6926 520.949 125.674 488.123 154.764M467.02 182.33C442.01 194.646 399.492 232.886 429.505 287.312M488.123 287.312C572.064 197.696 580.153 98.656 573.705 60.3382C591.877 93.7685 617.317 185.966 573.705 287.312C603.991 248.995 665.853 149.955 671.011 60.3382M632.323 136.583C649.127 106.671 703.251 49.5467 785.317 60.3382C743.502 65.2257 659.639 98.9297 658.702 194.646C657.529 314.291 741.353 320.156 785.317 194.646C820.487 94.2377 747.996 152.809 707.355 194.646M743.112 217.519C808.764 188.195 935.848 120.982 918.966 86.7306C897.863 43.9163 858.003 68.5492 839.245 86.7306C820.487 104.912 841.59 171.773 880.278 194.646C918.966 217.519 896.691 272.064 861.52 279.688C826.349 287.312 775.938 240.393 800.557 207.549C820.253 181.274 892.392 161.411 926 154.764M327.509 327.194C336.302 361.211 348.612 448.716 327.509 526.603C301.131 623.962 266.547 347.722 350.957 340.684C435.367 333.646 435.953 417.515 327.509 431.591C390.817 438.042 540.879 519.565 295.856 544.198C50.8322 568.831 547.913 596.983 449.435 451.531C418.367 399.333 414.85 526.603 460.572 526.603C506.295 526.603 524.466 453.877 508.053 431.591C491.64 409.304 583.084 676.16 428.333 627.48C304.531 588.537 624.898 555.732 800.557 544.198M185.654 676.16C222.974 727.185 296.09 849.411 289.994 930.113C282.374 1030.99 227.859 734.809 230.203 699.62C232.548 664.43 315.2 829.235 318.717 930.113C322.234 1030.99 191.516 751.231 201.481 737.155C211.446 723.079 265.961 652.7 332.199 676.16C398.437 699.62 323.406 793.459 230.203 799.324M374.99 908.999C415.788 821.259 407.621 784.466 398.437 777.037C386.714 801.475 372.528 862.079 409.575 908.999M438.298 777.037C452.952 790.331 491.171 808.943 526.811 777.037C571.361 737.155 467.607 789.354 475.813 830.408C484.02 871.463 450.607 888.472 438.298 886.712C425.988 884.953 565.499 813.986 541.465 863.839M555.534 765.894C574.487 779.579 618.138 800.966 641.116 777.037C669.839 747.126 624.117 755.923 595.394 799.324C566.671 842.725 613.566 858.56 570.188 872.636C526.811 886.712 656.357 806.362 656.357 853.868M691.528 765.894C694.342 741.847 709.23 743.49 733.147 726.598M733.147 726.598C763.042 705.485 667.494 759.442 699.734 830.408C709.113 848.394 737.015 871.229 773.593 818.678M733.147 726.598C740.571 765.112 766.207 839.792 809.35 830.408M418.367 699.62C416.024 719.365 404.069 757.683 374.99 752.991C338.642 747.126 418.367 646.248 418.367 699.62Z" stroke="black" stroke-width="14"/>
</g>
<defs>
<filter id="filter0_i_0_1" x="149.049" y="51.994" width="778.446" height="911.01" filterUnits="userSpaceOnUse" color-interpolation-filters="sRGB">
<feFlood flood-opacity="0" result="BackgroundImageFix"/>
<feBlend mode="normal" in="SourceGraphic" in2="BackgroundImageFix" result="shape"/>
<feColorMatrix in="SourceAlpha" type="matrix" values="0 0 0 0 0 0 0 0 0 0 0 0 0 0 0 0 0 0 127 0" result="hardAlpha"/>
<feOffset dy="4"/>
<feGaussianBlur stdDeviation="2"/>
<feComposite in2="hardAlpha" operator="arithmetic" k2="-1" k3="1"/>
<feColorMatrix type="matrix" values="0 0 0 0 0 0 0 0 0 0 0 0 0 0 0 0 0 0 0.25 0"/>
<feBlend mode="normal" in2="shape" result="effect1_innerShadow_0_1"/>
</filter>
</defs>
</svg>
